<svg width="27" height="24" viewBox="0 0 27 24" fill="none" xmlns="http://www.w3.org/2000/svg">
<path d="M12 24C18.6274 24 24 18.6274 24 12C24 5.37258 18.6274 0 12 0C5.37258 0 0 5.37258 0 12C0 18.6274 5.37258 24 12 24Z" fill="#37F2AD"/>
<path d="M12 24C18.6274 24 24 18.6274 24 12C24 5.37258 18.6274 0 12 0C5.37258 0 0 5.37258 0 12C0 18.6274 5.37258 24 12 24Z" fill="#07172F"/>
<path d="M25.735 2.89157H14.747C14.1881 2.89157 13.735 3.34468 13.735 3.90362V10.1928C13.735 10.7517 14.1881 11.2048 14.747 11.2048H25.735C26.2939 11.2048 26.747 10.7517 26.747 10.1928V3.90362C26.747 3.34468 26.2939 2.89157 25.735 2.89157Z" fill="#37F2AD"/>
</svg>
