<svg width="122" height="24" viewBox="0 0 122 24" fill="none" xmlns="http://www.w3.org/2000/svg">
<g clip-path="url(#clip0_0_1299)">
<path d="M12 24C18.6274 24 24 18.6274 24 12C24 5.37258 18.6274 0 12 0C5.37258 0 0 5.37258 0 12C0 18.6274 5.37258 24 12 24Z" fill="#37F2AD"/>
<path d="M12 24C18.6274 24 24 18.6274 24 12C24 5.37258 18.6274 0 12 0C5.37258 0 0 5.37258 0 12C0 18.6274 5.37258 24 12 24Z" fill="#07172F"/>
<path d="M25.735 2.89157H14.747C14.1881 2.89157 13.735 3.34468 13.735 3.90362V10.1928C13.735 10.7517 14.1881 11.2048 14.747 11.2048H25.735C26.2939 11.2048 26.747 10.7517 26.747 10.1928V3.90362C26.747 3.34468 26.2939 2.89157 25.735 2.89157Z" fill="#37F2AD"/>
</g>
<g clip-path="url(#clip1_0_1299)">
<path d="M38.7421 19.8626V13.4823H44.7212V10.9644H38.7421V7.44349H45.0617V4.92552H35.6781V19.8626H38.7421ZM49.4085 8.08529C50.5272 8.08529 50.9982 7.25248 50.9982 6.51765C50.9982 5.73383 50.5272 4.92552 49.4085 4.92552C48.3487 4.92552 47.8384 5.73383 47.8384 6.51765C47.8384 7.25248 48.3487 8.08529 49.4085 8.08529ZM50.9025 19.8626V9.2343H47.8384V19.8626H50.9025ZM57.6142 19.9584V12.5101C58.1905 11.868 59.0655 11.5684 60.0259 11.5684C61.157 11.5684 62.0961 12.2105 62.0961 13.7087V19.9584H65.1693V13.5374C65.1693 10.5624 63.4193 9.0428 61.3064 9.0428C59.7058 9.0428 58.4679 9.66349 57.7423 10.5196L57.6142 10.4768V9.25683H54.541V19.9584H57.6142ZM74.1369 19.8626L78.3829 9.2343H75.1397L72.7927 16.1002L72.622 16.8867H72.494L72.3233 16.1002L69.9976 9.2343H66.7971L71.0431 19.8626H74.1369ZM84.3917 20.1499C85.7586 20.1499 86.8691 19.6159 87.5312 18.8683L87.6593 18.911V19.9363H90.7348V9.2564H87.6593V9.91855L87.5526 9.98263C86.8691 9.42727 85.9508 9.0428 84.6053 9.0428C81.5939 9.0428 79.2447 11.4992 79.2447 14.5963C79.2447 17.6935 81.5085 20.1499 84.3917 20.1499ZM84.9897 17.5646C83.5098 17.5646 82.3087 16.2902 82.3087 14.5485C82.3087 12.7855 83.5098 11.5323 84.9897 11.5323C86.0836 11.5323 87.0058 11.8084 87.6707 12.2545V16.1203C87.1131 17.1823 86.0836 17.5646 84.9897 17.5646ZM99.3044 20.1499C102.323 20.1499 104.619 18.138 104.619 15.0559V9.2343H101.558V15.0559C101.558 16.7896 100.601 17.6243 99.3044 17.6243C98.0078 17.6243 97.0512 16.7896 97.0512 15.0559V9.2343H93.9903V15.0559C93.9903 18.138 96.3073 20.1499 99.3044 20.1499ZM112.066 20.1499L112.279 17.4562C111.3 17.392 110.747 16.9431 110.747 15.9597V4.35101H107.683V16.3017C107.683 18.8458 109.044 20.1499 112.066 20.1499ZM119.08 19.9584C119.873 19.9584 120.774 19.7879 121.375 19.5109L120.946 17.0602C120.581 17.1881 120.088 17.2733 119.594 17.2733C118.758 17.2733 118.179 16.8471 118.179 15.8243V11.541H120.839V9.19686H118.179V5.78727H115.089V9.19686H113.523V11.541H115.089V15.9947C115.089 18.5306 116.784 19.9584 119.08 19.9584Z" fill="#07172F"/>
</g>
<defs>
<clipPath id="clip0_0_1299">
<rect width="26.747" height="24" fill="white"/>
</clipPath>
<clipPath id="clip1_0_1299">
<rect width="85.6969" height="15.7989" fill="white" transform="translate(35.6781 4.35101)"/>
</clipPath>
</defs>
</svg>
