<svg width="56" height="56" viewBox="0 0 56 56" fill="none" xmlns="http://www.w3.org/2000/svg">
<rect width="56" height="56" rx="10" fill="#1BF3A4" fill-opacity="0.2"/>
<path d="M12.5297 34.5L13.6093 31.2944H18.5281L19.614 34.5H22.1437L17.5315 21.5H14.6058L10 34.5H12.5297ZM14.2481 29.4028L16.0176 24.166H16.1198L17.8893 29.4028H14.2481Z" fill="#17EC9D"/>
<path d="M24.0785 34.5H32.6385V32.5259H26.4485V28.9775H32.1467V27.0034H26.4485V23.4741H32.5874V21.5H24.0785V34.5Z" fill="#17EC9D"/>
<path d="M39.6503 34.5C43.6364 34.5 46 32.0498 46 27.9873C46 23.9375 43.6364 21.5 39.7397 21.5H35.2169V34.5H39.6503ZM37.5869 32.4624V23.5376H39.6055C42.263 23.5376 43.6492 25.0103 43.6492 27.9873C43.6492 30.9771 42.263 32.4624 39.5353 32.4624H37.5869Z" fill="#17EC9D"/>
</svg>
