<svg width="20" height="20" viewBox="0 0 20 20" fill="none" xmlns="http://www.w3.org/2000/svg">
<path fill-rule="evenodd" clip-rule="evenodd" d="M10 19.6C15.3019 19.6 19.6 15.3019 19.6 9.99999C19.6 4.69806 15.3019 0.399994 10 0.399994C4.69807 0.399994 0.400002 4.69806 0.400002 9.99999C0.400002 15.3019 4.69807 19.6 10 19.6ZM9.65236 13.2456L14.4475 8.45352C14.6732 8.22792 14.8 7.92196 14.8 7.60293C14.8 7.28388 14.6732 6.97792 14.4475 6.75233C14.2217 6.52673 13.9156 6.39999 13.5963 6.39999C13.2771 6.39999 12.9709 6.52673 12.7452 6.75233L8.80123 10.7058L7.25481 9.14838C7.02907 8.92278 6.72292 8.79605 6.40369 8.79605C6.08444 8.79605 5.77829 8.92278 5.55256 9.14838C5.32682 9.37397 5.2 9.67993 5.2 9.99898C5.2 10.318 5.32682 10.624 5.55256 10.8496L7.9501 13.2456C8.06154 13.3579 8.19412 13.447 8.34021 13.5079C8.48629 13.5687 8.64297 13.6 8.80123 13.6C8.95948 13.6 9.11616 13.5687 9.26224 13.5079C9.40833 13.447 9.54091 13.3579 9.65236 13.2456Z" fill="white"/>
</svg>
