<svg width="26" height="24" viewBox="0 0 26 24" fill="none" xmlns="http://www.w3.org/2000/svg">
<path d="M3.7791 3.91211L3.76338 3.9H4.05691H21.9431C23.6909 3.9 25.1 5.30888 25.1 7.05691V16.8842C25.1 18.632 23.6911 20.0411 21.9431 20.0411H4.05691C2.30907 20.0411 0.900002 18.6322 0.900002 16.8842L0.900177 7.03164C0.900177 5.40086 2.16253 4.05206 3.7791 3.91211ZM2.31258 16.8841C2.31258 17.8393 3.10149 18.6283 4.05673 18.6283H21.9429C22.8981 18.6283 23.6871 17.8394 23.6871 16.8841L23.6872 7.03155C23.6872 6.07635 22.8983 5.2874 21.9431 5.2874H4.05691C3.1017 5.2874 2.31276 6.07631 2.31276 7.03156L2.31258 16.8841Z" fill="#718CAF" stroke="#718CAF" stroke-width="0.2"/>
<path d="M5.01791 7.56314H11.6368C12.0205 7.56314 12.3432 7.88581 12.3432 8.2695C12.3432 8.65318 12.0205 8.97585 11.6368 8.97585H5.04317C4.66075 8.97585 4.33896 8.65532 4.33683 8.27332C4.30925 7.8839 4.63723 7.56314 5.01782 7.56314H5.01791Z" fill="#718CAF" stroke="#718CAF" stroke-width="0.2"/>
<path d="M5.01791 11.2515H11.6368C12.0205 11.2515 12.3432 11.5742 12.3432 11.9579C12.3432 12.3416 12.0205 12.6642 11.6368 12.6642H5.04317C4.65947 12.6642 4.33682 12.3416 4.33682 11.9579C4.33682 11.5798 4.62883 11.2515 5.01782 11.2515H5.01791Z" fill="#718CAF" stroke="#718CAF" stroke-width="0.2"/>
<path d="M5.01791 14.9399H11.6368C12.0205 14.9399 12.3432 15.2626 12.3432 15.6463C12.3432 16.03 12.0205 16.3526 11.6368 16.3526H5.04317C4.65947 16.3526 4.33682 16.03 4.33682 15.6463C4.33682 15.2682 4.62883 14.9399 5.01782 14.9399H5.01791Z" fill="#718CAF" stroke="#718CAF" stroke-width="0.2"/>
<path d="M16.1269 11.4075C15.7062 10.9467 15.4516 10.3502 15.4516 9.68411C15.4516 8.26478 16.608 7.10839 18.0273 7.10839C19.4466 7.10839 20.603 8.26478 20.603 9.68411C20.603 10.3466 20.3509 10.9647 19.9302 11.4091C21.0392 12.1282 21.7904 13.463 21.7904 14.964C21.7904 15.1808 21.7429 15.485 21.5407 15.7982C21.3384 16.1118 20.9861 16.4269 20.3897 16.6733L20.3886 16.6737C19.7432 16.932 18.8965 17.0851 18.0021 17.0851C17.0708 17.0851 16.1325 16.9259 15.4231 16.5858C14.7135 16.2456 14.2136 15.7128 14.2136 14.964H14.2136L14.2137 14.9607C14.2636 13.461 15.0165 12.1263 16.1269 11.4075ZM19.1904 9.6843C19.1904 9.03216 18.6794 8.52115 18.0273 8.52115C17.3752 8.52115 16.8642 9.03216 16.8642 9.6843C16.8642 10.3364 17.3752 10.8474 18.0273 10.8474C18.6781 10.8474 19.1904 10.3123 19.1904 9.6843ZM18.0273 15.6727C18.7754 15.6727 19.3757 15.5541 19.7854 15.3981C19.9908 15.32 20.1444 15.2339 20.2447 15.1517C20.3492 15.0661 20.3778 15.0001 20.3778 14.9642C20.3778 13.4655 19.2989 12.26 18.0273 12.26C16.7311 12.26 15.6768 13.4648 15.6768 14.9642C15.6768 15.0002 15.7054 15.0662 15.8099 15.1518C15.9102 15.234 16.0638 15.3201 16.2692 15.3982C16.6789 15.5542 17.2792 15.6727 18.0273 15.6727Z" fill="#718CAF" stroke="#718CAF" stroke-width="0.2"/>
</svg>
