<svg width="56" height="56" viewBox="0 0 56 56" fill="none" xmlns="http://www.w3.org/2000/svg">
<rect width="56" height="56" rx="10" fill="#1BF3A4" fill-opacity="0.2"/>
<path d="M27.2291 37.9091H28.8101L28.8175 36.2013C32.0167 35.9702 33.8513 34.2102 33.8587 31.712C33.8513 29.0646 31.6663 27.8565 29.3694 27.3121L28.8772 27.1854L28.907 22.9272C30.1002 23.136 30.8683 23.8519 30.9876 24.9258H33.6499C33.6052 22.5543 31.7408 20.8242 28.9219 20.5557L28.9294 18.8182H27.3484L27.341 20.5557C24.5444 20.8391 22.531 22.5543 22.5384 25.0227C22.5384 27.2152 24.097 28.4755 26.6101 29.1243L27.2813 29.2958L27.2515 33.8075C25.9166 33.5987 24.9546 32.8381 24.8577 31.4883H22.1357C22.2401 34.2848 24.1641 35.9478 27.2366 36.2013L27.2291 37.9091ZM28.8324 33.8075L28.8623 29.7134C30.2195 30.1087 31.0846 30.6307 31.092 31.6896C31.0846 32.7933 30.1971 33.5838 28.8324 33.8075ZM27.2962 26.7827C26.2671 26.4545 25.3275 25.9102 25.3424 24.8512C25.3498 23.8892 26.0732 23.1435 27.3261 22.9272L27.2962 26.7827Z" fill="#17EC9D"/>
</svg>
