<svg width="36" height="40" viewBox="0 0 36 40" fill="none" xmlns="http://www.w3.org/2000/svg">
<mask id="mask0_1_1517" style="mask-type:alpha" maskUnits="userSpaceOnUse" x="0" y="1" width="36" height="38">
<path d="M14.8713 1.91198C16.792 0.738237 19.208 0.738238 21.1287 1.91198L33.1287 9.24532C34.9122 10.3352 36 12.2748 36 14.365V25.635C36 27.7252 34.9122 29.6647 33.1287 30.7547L21.1287 38.088C19.208 39.2618 16.792 39.2618 14.8713 38.088L2.87129 30.7547C1.08776 29.6647 -9.43893e-06 27.7252 -9.43893e-06 25.635V14.365C-9.43893e-06 12.2748 1.08776 10.3352 2.87129 9.24532L14.8713 1.91198Z" fill="#C4C4C4"/>
</mask>
<g mask="url(#mask0_1_1517)">
<path opacity="0.65" d="M14.8713 1.91198C16.792 0.738237 19.208 0.738238 21.1287 1.91198L33.1287 9.24532C34.9122 10.3352 36 12.2748 36 14.365V25.635C36 27.7252 34.9122 29.6647 33.1287 30.7547L21.1287 38.088C19.208 39.2618 16.792 39.2618 14.8713 38.088L2.87129 30.7547C1.08776 29.6647 -9.43893e-06 27.7252 -9.43893e-06 25.635V14.365C-9.43893e-06 12.2748 1.08776 10.3352 2.87129 9.24532L14.8713 1.91198Z" fill="#C4C4C4"/>
<path d="M2.8713 30.7547L18 40L18 0L2.8713 9.24532C1.08777 10.3353 0 12.2748 0 14.365V25.635C0 27.7252 1.08777 29.6647 2.8713 30.7547Z" fill="#68FFC7"/>
<path d="M33.1287 30.7547L18 40L18 0L33.1287 9.24532C34.9122 10.3353 36 12.2748 36 14.365V25.635C36 27.7252 34.9122 29.6647 33.1287 30.7547Z" fill="#1BDE96"/>
<path opacity="0.65" d="M18 8L29 14.6V25.4L18 32L7 25.4V14.6L18 8Z" fill="#1BF3A4"/>
</g>
<path d="M14.568 17H12.9899V21.0332H12.9356L10.3609 17H9V24H10.5813V19.96H10.6228L13.2263 24H14.568V17Z" fill="#07172F"/>
<path d="M15.7422 24H17.3235V21.187H19.9239V19.8096H17.3235V18.374H20.2082V17H15.7422V24Z" fill="#07172F"/>
<path d="M20.9703 18.374H22.9573V24H24.5162V18.374H26.5V17H20.9703V18.374Z" fill="#07172F"/>
</svg>
